<svg width="20" height="20" viewBox="0 0 20 20" fill="none" xmlns="http://www.w3.org/2000/svg">
<path fill-rule="evenodd" clip-rule="evenodd" d="M9.67585 0.57782C7.06862 0.57782 6.74142 0.58922 5.71741 0.63582C4.6954 0.682621 3.99779 0.844423 3.38739 1.08183C2.75598 1.32703 2.22037 1.65503 1.68677 2.18884C1.15276 2.72244 0.824759 3.25805 0.578756 3.88925C0.340754 4.49986 0.178752 5.19767 0.132752 6.21928C0.0869513 7.24329 0.0749512 7.57069 0.0749512 10.1779C0.0749512 12.7851 0.0865513 13.1114 0.132952 14.1354C0.179952 15.1574 0.341754 15.855 0.578956 16.4654C0.824359 17.0968 1.15236 17.6324 1.68617 18.166C2.21957 18.7 2.75518 19.0288 3.38619 19.274C3.99699 19.5114 4.6948 19.6732 5.71661 19.72C6.74062 19.7666 7.06762 19.778 9.67465 19.778C12.2821 19.778 12.6083 19.7666 13.6323 19.72C14.6543 19.6732 15.3527 19.5114 15.9635 19.274C16.5947 19.0288 17.1295 18.7 17.6629 18.166C18.1969 17.6324 18.5249 17.0968 18.7709 16.4656C19.0069 15.855 19.169 15.1572 19.217 14.1356C19.263 13.1116 19.275 12.7851 19.275 10.1779C19.275 7.57069 19.263 7.24349 19.217 6.21948C19.169 5.19747 19.0069 4.49986 18.7709 3.88945C18.5249 3.25805 18.1969 2.72244 17.6629 2.18884C17.1289 1.65483 16.5949 1.32683 15.9629 1.08183C15.3509 0.844423 14.6529 0.682621 13.6309 0.63582C12.6069 0.58922 12.2809 0.57782 9.67285 0.57782H9.67585ZM8.81464 2.30784C9.07024 2.30744 9.35545 2.30784 9.67585 2.30784C12.2391 2.30784 12.5429 2.31704 13.5551 2.36304C14.4911 2.40584 14.9991 2.56224 15.3375 2.69364C15.7855 2.86764 16.1049 3.07565 16.4407 3.41165C16.7767 3.74765 16.9847 4.06766 17.1591 4.51566C17.2905 4.85366 17.4471 5.36167 17.4897 6.29768C17.5357 7.30969 17.5457 7.61369 17.5457 10.1757C17.5457 12.7377 17.5357 13.0417 17.4897 14.0538C17.4469 14.9898 17.2905 15.4978 17.1591 15.8358C16.9851 16.2838 16.7767 16.6028 16.4407 16.9386C16.1047 17.2746 15.7857 17.4826 15.3375 17.6566C14.9995 17.7886 14.4911 17.9446 13.5551 17.9874C12.5431 18.0334 12.2391 18.0434 9.67585 18.0434C7.11242 18.0434 6.80862 18.0334 5.79661 17.9874C4.8606 17.9442 4.3526 17.7878 4.01399 17.6564C3.56599 17.4824 3.24598 17.2744 2.90998 16.9384C2.57398 16.6024 2.36598 16.2832 2.19157 15.835C2.06017 15.497 1.90357 14.989 1.86097 14.053C1.81497 13.0409 1.80577 12.7369 1.80577 10.1733C1.80577 7.60969 1.81497 7.30729 1.86097 6.29528C1.90377 5.35927 2.06017 4.85126 2.19157 4.51286C2.36558 4.06486 2.57398 3.74485 2.90998 3.40885C3.24598 3.07285 3.56599 2.86484 4.01399 2.69044C4.3524 2.55844 4.8606 2.40244 5.79661 2.35944C6.68222 2.31944 7.02542 2.30744 8.81464 2.30544V2.30784ZM14.8003 3.90185C14.1643 3.90185 13.6483 4.41726 13.6483 5.05347C13.6483 5.68947 14.1643 6.20548 14.8003 6.20548C15.4363 6.20548 15.9523 5.68947 15.9523 5.05347C15.9523 4.41746 15.4363 3.90145 14.8003 3.90145V3.90185ZM9.67585 5.24787C6.95322 5.24787 4.7458 7.45529 4.7458 10.1779C4.7458 12.9005 6.95322 15.107 9.67585 15.107C12.3985 15.107 14.6051 12.9005 14.6051 10.1779C14.6051 7.45529 12.3983 5.24787 9.67565 5.24787H9.67585ZM9.67585 6.97789C11.4431 6.97789 12.8759 8.4105 12.8759 10.1779C12.8759 11.9451 11.4431 13.378 9.67585 13.378C7.90843 13.378 6.47582 11.9451 6.47582 10.1779C6.47582 8.4105 7.90843 6.97789 9.67585 6.97789Z" fill="#888B8D"/>
</svg>
