<svg width="20" height="19" viewBox="0 0 20 19" fill="none" xmlns="http://www.w3.org/2000/svg">
<path fill-rule="evenodd" clip-rule="evenodd" d="M4.66451 2.69484C4.63804 1.49312 3.77868 0.57782 2.38321 0.57782C0.987747 0.57782 0.0754395 1.49312 0.0754395 2.69484C0.0754395 3.87167 0.960783 4.81333 2.33026 4.81333H2.35633C3.77868 4.81333 4.66451 3.87167 4.66451 2.69484ZM4.39585 6.48621H0.316652V18.7425H4.39585V6.48621ZM14.4103 6.1984C17.0946 6.1984 19.107 7.95051 19.107 11.7151L19.1068 18.7425H15.0278V12.1854C15.0278 10.5384 14.4375 9.41449 12.9608 9.41449C11.8339 9.41449 11.1626 10.1721 10.8678 10.9039C10.7599 11.1662 10.7334 11.5316 10.7334 11.8979V18.7428H6.65376C6.65376 18.7428 6.70753 7.6366 6.65376 6.48653H10.7334V8.22253C11.2749 7.38801 12.2445 6.1984 14.4103 6.1984Z" fill="#888B8D"/>
</svg>
