<svg width="18" height="16" viewBox="0 0 18 16" fill="none" xmlns="http://www.w3.org/2000/svg">
<path fill-rule="evenodd" clip-rule="evenodd" d="M8.5361 4.53863L8.57387 5.16147L7.94434 5.08521C5.65284 4.79285 3.65093 3.80139 1.9512 2.13625L1.12022 1.31003L0.906177 1.92016C0.452914 3.28024 0.742499 4.71659 1.6868 5.68263C2.19042 6.21649 2.07711 6.29276 1.20835 5.97498C0.906177 5.87329 0.641774 5.79703 0.616592 5.83516C0.528458 5.92414 0.830633 7.08084 1.06985 7.53844C1.39721 8.17399 2.06451 8.79683 2.79477 9.16545L3.41171 9.4578L2.68146 9.47051C1.97638 9.47051 1.9512 9.48322 2.02674 9.75016C2.27856 10.5764 3.27322 11.4534 4.38119 11.8348L5.16181 12.1017L4.48191 12.5085C3.47466 13.0932 2.29115 13.4236 1.10763 13.4491C0.541049 13.4618 0.0751953 13.5126 0.0751953 13.5508C0.0751953 13.6779 1.61125 14.3897 2.50519 14.6693C5.18699 15.4955 8.37242 15.1396 10.7646 13.7287C12.4644 12.7245 14.1641 10.7289 14.9573 8.79683C15.3854 7.76724 15.8135 5.886 15.8135 4.98352C15.8135 4.39881 15.8513 4.32255 16.5563 3.62344C16.9718 3.21669 17.3621 2.7718 17.4377 2.64469C17.5636 2.40318 17.551 2.40318 16.9089 2.61927C15.8387 3.0006 15.6876 2.94975 16.2164 2.37776C16.6067 1.971 17.0725 1.23376 17.0725 1.01768C17.0725 0.979544 16.8837 1.0431 16.6696 1.1575C16.443 1.28461 15.9394 1.47527 15.5617 1.58967L14.8818 1.80576L14.2648 1.3863C13.9249 1.1575 13.4464 0.903278 13.1946 0.827012C12.5525 0.649057 11.5704 0.674479 10.9913 0.877856C9.41744 1.44985 8.42278 2.92433 8.5361 4.53863Z" fill="#888B8D"/>
</svg>
